Coordinates
version=1
nRows=5
nColumns=46
inDegrees=yes

Units are S.I. units (second, meters, Newtons, ...)
Angles are in degrees.

endheader
time	pelvis_tilt	pelvis_list	pelvis_rotation	pelvis_tx	pelvis_ty	pelvis_tz	bb_angle	bb_tx	bb_ty	bb_tz	hip_flexion_r	hip_adduction_r	hip_rotation_r	knee_angle_r	knee_angle_r_beta	ankle_angle_r	subtalar_angle_r	mtp_angle_r	crank_angle_r	hip_flexion_l	hip_adduction_l	hip_rotation_l	knee_angle_l	knee_angle_l_beta	ankle_angle_l	subtalar_angle_l	mtp_angle_l	crank_angle_l	lumbar_extension	lumbar_bending	lumbar_rotation	arm_flex_r	arm_add_r	arm_rot_r	elbow_flex_r	pro_sup_r	wrist_flex_r	wrist_dev_r	arm_flex_l	arm_add_l	arm_rot_l	elbow_flex_l	pro_sup_l	wrist_flex_l	wrist_dev_l
      2.50500000	    -27.36428112	     -3.35508847	     -3.45504595	      0.31795857	      1.13887848	     -0.22780119	      0.00000000	      0.50000000	      0.00000000	      0.25000000	     65.80628614	      2.29519800	     -3.20031632	     63.22331298	      1.10345498	     13.34239399	    -11.94711498	      0.00000000	      0.00000000	     52.92492935	     -8.32097960	      5.75135074	     75.70833404	      1.32135970	     -9.67619006	    -15.99253462	      0.00000000	      0.00000000	    -58.36200641	     12.48095511	      2.94266191	     63.33821183	     -4.01455061	     32.05080640	     72.33713640	     48.56262747	      0.00000000	      0.00000000	     45.04147894	    -28.73579866	     10.62327678	     76.95576476	     47.41527885	      0.00000000	      0.00000000
      2.51000000	    -27.03150366	     -3.09444254	     -3.25122209	      0.31929449	      1.13775006	     -0.22844994	      0.00000000	      0.50000000	      0.00000000	      0.25000000	     64.98295260	      2.01385981	     -2.94131886	     62.48696074	      1.09060320	     12.93004558	    -11.86226241	      0.00000000	      0.00000000	     53.25047591	     -7.97728555	      5.72697886	     77.15824399	      1.34666540	     -9.53595652	    -16.18505773	      0.00000000	      0.00000000	    -58.34282882	     12.40685666	      2.57509601	     63.02270256	     -4.10765140	     32.03064215	     72.30826723	     48.56910102	      0.00000000	      0.00000000	     44.94909483	    -28.63844900	     10.70774854	     76.88631910	     47.41930555	      0.00000000	      0.00000000
      2.51500000	    -26.61587499	     -3.03714494	     -2.93156764	      0.32059708	      1.13664697	     -0.22921700	      0.00000000	      0.50000000	      0.00000000	      0.25000000	     64.05031548	      1.73709762	     -2.98038409	     61.72855689	      1.07736656	     12.22907743	    -12.18430596	      0.00000000	      0.00000000	     53.56238690	     -7.68962858	      5.95080084	     78.66848078	      1.37302401	     -9.13503645	    -15.84932993	      0.00000000	      0.00000000	    -58.41602117	     12.56371917	      2.40335867	     62.49025250	     -4.08900508	     31.72848951	     72.39887638	     48.60422659	      0.00000000	      0.00000000	     44.94995347	    -28.58026115	     10.96815216	     76.54708056	     47.41906749	      0.00000000	      0.00000000
      2.52000000	    -26.27797006	     -2.75012510	     -2.76950867	      0.32192223	      1.13536989	     -0.22982900	      0.00000000	      0.50000000	      0.00000000	      0.25000000	     63.23684720	      1.48081645	     -2.67084451	     61.04045505	      1.06535692	     11.73404066	    -12.02078068	      0.00000000	      0.00000000	     53.90751934	     -7.39552920	      5.82689651	     80.11743548	      1.39831304	     -9.10398401	    -15.79860309	      0.00000000	      0.00000000	    -58.37046414	     12.42101045	      2.04217727	     62.17494274	     -4.19006887	     31.68252545	     72.36315715	     48.60535282	      0.00000000	      0.00000000	     44.88408698	    -28.45360778	     11.07934619	     76.47169684	     47.42292236	      0.00000000	      0.00000000
      2.52500000	    -25.82054396	     -2.64200048	     -2.54835538	      0.32324127	      1.13428707	     -0.23045912	      0.00000000	      0.50000000	      0.00000000	      0.25000000	     62.25960613	      1.25390510	     -2.65957690	     60.29092546	      1.05227516	     10.85808775	    -12.40931252	      0.00000000	      0.00000000	     54.18835334	     -7.20780289	      5.94030874	     81.62101599	      1.42455547	     -8.60008896	    -15.09479724	      0.00000000	      0.00000000	    -58.37602674	     12.33594394	      2.45567714	     61.02546718	     -4.57950914	     30.29025103	     73.03765151	     48.84449885	      0.00000000	      0.00000000	     46.00425508	    -27.76872408	     12.65723876	     74.70515317	     47.44676512	      0.00000000	      0.00000000
